# xmcd
#
# Track frame offsets:
#	150
#	22508
#	44013
#	67917
#	89987
#	105691
#	124912
#	155404
#	171492
#	197298
#	226820
#
# Disc length: 3400 seconds
#
# Revision: 0
# Processed by: cddbd v1.5.2PL0 Copyright (c) Steve Scherf et al.
# Submitted via: audiograbber 1.83.01
#
DISCID=8b0d460b
DTITLE=Tab Benoit - Night Train to Nashville
DYEAR=2008
DGENRE=Blues
TTITLE0=Night Train 
TTITLE1=Solid Simple Things
TTITLE2=Darkness 
TTITLE3=Too Sweet For Me 
TTITLE4=Moon Comin Over The Hill 
TTITLE5=Lost In Your Lovin 
TTITLE6=Rendezvous With the Blues
TTITLE7=Fever For The Bayou 
TTITLE8=New Orleans Ladies 
TTITLE9=Muddy Bottom Blues 
TTITLE10=Stackolina 
EXTD=
EXTT0=
EXTT1=
EXTT2=
EXTT3=
EXTT4=
EXTT5=
EXTT6=
EXTT7=
EXTT8=
EXTT9=
EXTT10=
PLAYORDER=
